<mxfile host="app.diagrams.net" modified="2023-05-04T15:52:39.107Z" agent="Mozilla/5.0 (Windows NT 10.0; Win64; x64) AppleWebKit/537.36 (KHTML, like Gecko) Chrome/112.0.0.0 Safari/537.36" etag="qEN41LBmDTgJU2nhFqui" version="21.2.3" type="device">
  <diagram id="C5RBs43oDa-KdzZeNtuy" name="Page-1">
    <mxGraphModel dx="1434" dy="764" grid="1" gridSize="10" guides="1" tooltips="1" connect="1" arrows="1" fold="1" page="1" pageScale="1" pageWidth="827" pageHeight="1169" math="0" shadow="0">
      <root>
        <mxCell id="WIyWlLk6GJQsqaUBKTNV-0" />
        <mxCell id="WIyWlLk6GJQsqaUBKTNV-1" parent="WIyWlLk6GJQsqaUBKTNV-0" />
        <mxCell id="3a-n78wIj4DWJJQAP6ZG-1" style="edgeStyle=orthogonalEdgeStyle;rounded=0;orthogonalLoop=1;jettySize=auto;html=1;entryX=0.5;entryY=0;entryDx=0;entryDy=0;" edge="1" parent="WIyWlLk6GJQsqaUBKTNV-1" source="WIyWlLk6GJQsqaUBKTNV-3" target="3a-n78wIj4DWJJQAP6ZG-0">
          <mxGeometry relative="1" as="geometry" />
        </mxCell>
        <mxCell id="WIyWlLk6GJQsqaUBKTNV-3" value="Client1" style="rounded=1;whiteSpace=wrap;html=1;fontSize=12;glass=0;strokeWidth=1;shadow=0;" parent="WIyWlLk6GJQsqaUBKTNV-1" vertex="1">
          <mxGeometry x="160" y="80" width="120" height="40" as="geometry" />
        </mxCell>
        <mxCell id="3a-n78wIj4DWJJQAP6ZG-5" style="edgeStyle=orthogonalEdgeStyle;rounded=0;orthogonalLoop=1;jettySize=auto;html=1;entryX=0;entryY=0.5;entryDx=0;entryDy=0;" edge="1" parent="WIyWlLk6GJQsqaUBKTNV-1" source="3a-n78wIj4DWJJQAP6ZG-0" target="3a-n78wIj4DWJJQAP6ZG-4">
          <mxGeometry relative="1" as="geometry" />
        </mxCell>
        <mxCell id="3a-n78wIj4DWJJQAP6ZG-22" style="edgeStyle=orthogonalEdgeStyle;rounded=0;orthogonalLoop=1;jettySize=auto;html=1;entryX=0.5;entryY=0;entryDx=0;entryDy=0;" edge="1" parent="WIyWlLk6GJQsqaUBKTNV-1" source="3a-n78wIj4DWJJQAP6ZG-0" target="3a-n78wIj4DWJJQAP6ZG-19">
          <mxGeometry relative="1" as="geometry" />
        </mxCell>
        <mxCell id="3a-n78wIj4DWJJQAP6ZG-0" value="casts card" style="rounded=1;whiteSpace=wrap;html=1;" vertex="1" parent="WIyWlLk6GJQsqaUBKTNV-1">
          <mxGeometry x="160" y="160" width="120" height="40" as="geometry" />
        </mxCell>
        <mxCell id="3a-n78wIj4DWJJQAP6ZG-23" style="edgeStyle=orthogonalEdgeStyle;rounded=0;orthogonalLoop=1;jettySize=auto;html=1;entryX=0.5;entryY=0;entryDx=0;entryDy=0;" edge="1" parent="WIyWlLk6GJQsqaUBKTNV-1" source="3a-n78wIj4DWJJQAP6ZG-2" target="3a-n78wIj4DWJJQAP6ZG-4">
          <mxGeometry relative="1" as="geometry" />
        </mxCell>
        <mxCell id="3a-n78wIj4DWJJQAP6ZG-2" value="ws" style="rounded=1;whiteSpace=wrap;html=1;" vertex="1" parent="WIyWlLk6GJQsqaUBKTNV-1">
          <mxGeometry x="320" y="80" width="120" height="40" as="geometry" />
        </mxCell>
        <mxCell id="3a-n78wIj4DWJJQAP6ZG-12" style="edgeStyle=orthogonalEdgeStyle;rounded=0;orthogonalLoop=1;jettySize=auto;html=1;entryX=0.5;entryY=0;entryDx=0;entryDy=0;" edge="1" parent="WIyWlLk6GJQsqaUBKTNV-1" source="3a-n78wIj4DWJJQAP6ZG-3" target="3a-n78wIj4DWJJQAP6ZG-10">
          <mxGeometry relative="1" as="geometry" />
        </mxCell>
        <mxCell id="3a-n78wIj4DWJJQAP6ZG-3" value="client2" style="rounded=1;whiteSpace=wrap;html=1;" vertex="1" parent="WIyWlLk6GJQsqaUBKTNV-1">
          <mxGeometry x="480" y="80" width="120" height="40" as="geometry" />
        </mxCell>
        <mxCell id="3a-n78wIj4DWJJQAP6ZG-7" style="edgeStyle=orthogonalEdgeStyle;rounded=0;orthogonalLoop=1;jettySize=auto;html=1;entryX=0.5;entryY=0;entryDx=0;entryDy=0;" edge="1" parent="WIyWlLk6GJQsqaUBKTNV-1" source="3a-n78wIj4DWJJQAP6ZG-4" target="3a-n78wIj4DWJJQAP6ZG-6">
          <mxGeometry relative="1" as="geometry" />
        </mxCell>
        <mxCell id="3a-n78wIj4DWJJQAP6ZG-4" value="gets api call" style="rounded=1;whiteSpace=wrap;html=1;" vertex="1" parent="WIyWlLk6GJQsqaUBKTNV-1">
          <mxGeometry x="320" y="160" width="120" height="40" as="geometry" />
        </mxCell>
        <mxCell id="3a-n78wIj4DWJJQAP6ZG-11" style="edgeStyle=orthogonalEdgeStyle;rounded=0;orthogonalLoop=1;jettySize=auto;html=1;entryX=0.5;entryY=0;entryDx=0;entryDy=0;" edge="1" parent="WIyWlLk6GJQsqaUBKTNV-1" source="3a-n78wIj4DWJJQAP6ZG-6" target="3a-n78wIj4DWJJQAP6ZG-8">
          <mxGeometry relative="1" as="geometry" />
        </mxCell>
        <mxCell id="3a-n78wIj4DWJJQAP6ZG-6" value="changes position in db" style="rounded=1;whiteSpace=wrap;html=1;" vertex="1" parent="WIyWlLk6GJQsqaUBKTNV-1">
          <mxGeometry x="320" y="240" width="120" height="40" as="geometry" />
        </mxCell>
        <mxCell id="3a-n78wIj4DWJJQAP6ZG-17" style="edgeStyle=orthogonalEdgeStyle;rounded=0;orthogonalLoop=1;jettySize=auto;html=1;entryX=0;entryY=0.5;entryDx=0;entryDy=0;" edge="1" parent="WIyWlLk6GJQsqaUBKTNV-1" source="3a-n78wIj4DWJJQAP6ZG-8" target="3a-n78wIj4DWJJQAP6ZG-16">
          <mxGeometry relative="1" as="geometry" />
        </mxCell>
        <mxCell id="3a-n78wIj4DWJJQAP6ZG-8" value="sends to clients" style="rounded=1;whiteSpace=wrap;html=1;" vertex="1" parent="WIyWlLk6GJQsqaUBKTNV-1">
          <mxGeometry x="320" y="320" width="120" height="40" as="geometry" />
        </mxCell>
        <mxCell id="3a-n78wIj4DWJJQAP6ZG-15" style="edgeStyle=orthogonalEdgeStyle;rounded=0;orthogonalLoop=1;jettySize=auto;html=1;" edge="1" parent="WIyWlLk6GJQsqaUBKTNV-1" source="3a-n78wIj4DWJJQAP6ZG-10" target="3a-n78wIj4DWJJQAP6ZG-13">
          <mxGeometry relative="1" as="geometry" />
        </mxCell>
        <mxCell id="3a-n78wIj4DWJJQAP6ZG-10" value="endstep" style="rounded=1;whiteSpace=wrap;html=1;" vertex="1" parent="WIyWlLk6GJQsqaUBKTNV-1">
          <mxGeometry x="480" y="160" width="120" height="40" as="geometry" />
        </mxCell>
        <mxCell id="3a-n78wIj4DWJJQAP6ZG-18" style="edgeStyle=orthogonalEdgeStyle;rounded=0;orthogonalLoop=1;jettySize=auto;html=1;entryX=0.5;entryY=0;entryDx=0;entryDy=0;" edge="1" parent="WIyWlLk6GJQsqaUBKTNV-1" source="3a-n78wIj4DWJJQAP6ZG-13" target="3a-n78wIj4DWJJQAP6ZG-16">
          <mxGeometry relative="1" as="geometry" />
        </mxCell>
        <mxCell id="3a-n78wIj4DWJJQAP6ZG-13" value="starts listening" style="rounded=1;whiteSpace=wrap;html=1;" vertex="1" parent="WIyWlLk6GJQsqaUBKTNV-1">
          <mxGeometry x="480" y="240" width="120" height="40" as="geometry" />
        </mxCell>
        <mxCell id="3a-n78wIj4DWJJQAP6ZG-14" style="edgeStyle=orthogonalEdgeStyle;rounded=0;orthogonalLoop=1;jettySize=auto;html=1;exitX=0.5;exitY=1;exitDx=0;exitDy=0;" edge="1" parent="WIyWlLk6GJQsqaUBKTNV-1" source="3a-n78wIj4DWJJQAP6ZG-13" target="3a-n78wIj4DWJJQAP6ZG-13">
          <mxGeometry relative="1" as="geometry" />
        </mxCell>
        <mxCell id="3a-n78wIj4DWJJQAP6ZG-16" value="receives" style="rounded=1;whiteSpace=wrap;html=1;" vertex="1" parent="WIyWlLk6GJQsqaUBKTNV-1">
          <mxGeometry x="480" y="320" width="120" height="40" as="geometry" />
        </mxCell>
        <mxCell id="3a-n78wIj4DWJJQAP6ZG-21" style="edgeStyle=orthogonalEdgeStyle;rounded=0;orthogonalLoop=1;jettySize=auto;html=1;entryX=0.5;entryY=0;entryDx=0;entryDy=0;" edge="1" parent="WIyWlLk6GJQsqaUBKTNV-1" source="3a-n78wIj4DWJJQAP6ZG-19" target="3a-n78wIj4DWJJQAP6ZG-20">
          <mxGeometry relative="1" as="geometry" />
        </mxCell>
        <mxCell id="3a-n78wIj4DWJJQAP6ZG-19" value="ends turn" style="rounded=1;whiteSpace=wrap;html=1;" vertex="1" parent="WIyWlLk6GJQsqaUBKTNV-1">
          <mxGeometry x="160" y="240" width="120" height="40" as="geometry" />
        </mxCell>
        <mxCell id="3a-n78wIj4DWJJQAP6ZG-20" value="starts listening" style="rounded=1;whiteSpace=wrap;html=1;" vertex="1" parent="WIyWlLk6GJQsqaUBKTNV-1">
          <mxGeometry x="160" y="320" width="120" height="40" as="geometry" />
        </mxCell>
      </root>
    </mxGraphModel>
  </diagram>
</mxfile>
